<?xml version="1.0" encoding="UTF-8" standalone="no"?><svg xmlns="http://www.w3.org/2000/svg" xmlns:xlink="http://www.w3.org/1999/xlink" contentScriptType="application/ecmascript" contentStyleType="text/css" height="748px" preserveAspectRatio="none" style="width:1848px;height:748px;background:#FFFFFF;" version="1.1" viewBox="0 0 1848 748" width="1848px" zoomAndPan="magnify"><defs><filter height="300%" id="fth9o39gy6yws" width="300%" x="-1" y="-1"><feGaussianBlur result="blurOut" stdDeviation="2.0"/><feColorMatrix in="blurOut" result="blurOut2" type="matrix" values="0 0 0 0 0 0 0 0 0 0 0 0 0 0 0 0 0 0 .4 0"/><feOffset dx="4.0" dy="4.0" in="blurOut2" result="blurOut3"/><feBlend in="SourceGraphic" in2="blurOut3" mode="normal"/></filter></defs><g><text fill="#000000" font-family="sans-serif" font-size="18" lengthAdjust="spacing" textLength="171" x="714" y="28.708">Sequence diagram</text><text fill="#000000" font-family="sans-serif" font-size="18" font-weight="bold" lengthAdjust="spacing" textLength="159" x="891" y="28.708">ML Model Build</text><text fill="#000000" font-family="sans-serif" font-size="18" lengthAdjust="spacing" textLength="73" x="1056" y="28.708">process</text><line style="stroke:#A80036;stroke-width:1.0;stroke-dasharray:5.0,5.0;" x1="57" x2="57" y1="123.25" y2="664.5078"/><line style="stroke:#A80036;stroke-width:1.0;stroke-dasharray:5.0,5.0;" x1="273" x2="273" y1="123.25" y2="664.5078"/><line style="stroke:#A80036;stroke-width:1.0;stroke-dasharray:5.0,5.0;" x1="501" x2="501" y1="123.25" y2="664.5078"/><line style="stroke:#A80036;stroke-width:1.0;stroke-dasharray:5.0,5.0;" x1="741" x2="741" y1="123.25" y2="664.5078"/><line style="stroke:#A80036;stroke-width:1.0;stroke-dasharray:5.0,5.0;" x1="853" x2="853" y1="123.25" y2="664.5078"/><line style="stroke:#A80036;stroke-width:1.0;stroke-dasharray:5.0,5.0;" x1="1187.5" x2="1187.5" y1="123.25" y2="664.5078"/><line style="stroke:#A80036;stroke-width:1.0;stroke-dasharray:5.0,5.0;" x1="1608" x2="1608" y1="123.25" y2="664.5078"/><line style="stroke:#A80036;stroke-width:1.0;stroke-dasharray:5.0,5.0;" x1="1755" x2="1755" y1="123.25" y2="664.5078"/><text fill="#000000" font-family="sans-serif" font-size="14" lengthAdjust="spacing" textLength="98" x="5" y="119.9482">DataScientist</text><ellipse cx="57" cy="49.9531" fill="#FEFECE" filter="url(#fth9o39gy6yws)" rx="8" ry="8" style="stroke:#A80036;stroke-width:2.0;"/><path d="M57,57.9531 L57,84.9531 M44,65.9531 L70,65.9531 M57,84.9531 L44,99.9531 M57,84.9531 L70,99.9531 " fill="none" filter="url(#fth9o39gy6yws)" style="stroke:#A80036;stroke-width:2.0;"/><text fill="#000000" font-family="sans-serif" font-size="14" lengthAdjust="spacing" textLength="98" x="5" y="676.5029">DataScientist</text><ellipse cx="57" cy="689.8047" fill="#FEFECE" filter="url(#fth9o39gy6yws)" rx="8" ry="8" style="stroke:#A80036;stroke-width:2.0;"/><path d="M57,697.8047 L57,724.8047 M44,705.8047 L70,705.8047 M57,724.8047 L44,739.8047 M57,724.8047 L70,739.8047 " fill="none" filter="url(#fth9o39gy6yws)" style="stroke:#A80036;stroke-width:2.0;"/><rect fill="#FEFECE" filter="url(#fth9o39gy6yws)" height="30.2969" style="stroke:#A80036;stroke-width:1.5;" width="64" x="239" y="87.9531"/><text fill="#000000" font-family="sans-serif" font-size="14" lengthAdjust="spacing" textLength="50" x="246" y="107.9482">GitHub</text><rect fill="#FEFECE" filter="url(#fth9o39gy6yws)" height="30.2969" style="stroke:#A80036;stroke-width:1.5;" width="64" x="239" y="663.5078"/><text fill="#000000" font-family="sans-serif" font-size="14" lengthAdjust="spacing" textLength="50" x="246" y="683.5029">GitHub</text><rect fill="#FEFECE" filter="url(#fth9o39gy6yws)" height="30.2969" style="stroke:#A80036;stroke-width:1.5;" width="110" x="444" y="87.9531"/><text fill="#000000" font-family="sans-serif" font-size="14" lengthAdjust="spacing" textLength="96" x="451" y="107.9482">GithubAction</text><rect fill="#FEFECE" filter="url(#fth9o39gy6yws)" height="30.2969" style="stroke:#A80036;stroke-width:1.5;" width="110" x="444" y="663.5078"/><text fill="#000000" font-family="sans-serif" font-size="14" lengthAdjust="spacing" textLength="96" x="451" y="683.5029">GithubAction</text><rect fill="#FEFECE" filter="url(#fth9o39gy6yws)" height="30.2969" style="stroke:#A80036;stroke-width:1.5;" width="94" x="692" y="87.9531"/><text fill="#000000" font-family="sans-serif" font-size="14" lengthAdjust="spacing" textLength="80" x="699" y="107.9482">DockerHub</text><rect fill="#FEFECE" filter="url(#fth9o39gy6yws)" height="30.2969" style="stroke:#A80036;stroke-width:1.5;" width="94" x="692" y="663.5078"/><text fill="#000000" font-family="sans-serif" font-size="14" lengthAdjust="spacing" textLength="80" x="699" y="683.5029">DockerHub</text><rect fill="#FEFECE" filter="url(#fth9o39gy6yws)" height="30.2969" style="stroke:#A80036;stroke-width:1.5;" width="98" x="802" y="87.9531"/><text fill="#000000" font-family="sans-serif" font-size="14" lengthAdjust="spacing" textLength="84" x="809" y="107.9482">Kubernetes</text><rect fill="#FEFECE" filter="url(#fth9o39gy6yws)" height="30.2969" style="stroke:#A80036;stroke-width:1.5;" width="98" x="802" y="663.5078"/><text fill="#000000" font-family="sans-serif" font-size="14" lengthAdjust="spacing" textLength="84" x="809" y="683.5029">Kubernetes</text><rect fill="#FEFECE" filter="url(#fth9o39gy6yws)" height="30.2969" style="stroke:#A80036;stroke-width:1.5;" width="121" x="1125.5" y="87.9531"/><text fill="#000000" font-family="sans-serif" font-size="14" lengthAdjust="spacing" textLength="107" x="1132.5" y="107.9482">KubernetesJob</text><rect fill="#FEFECE" filter="url(#fth9o39gy6yws)" height="30.2969" style="stroke:#A80036;stroke-width:1.5;" width="121" x="1125.5" y="663.5078"/><text fill="#000000" font-family="sans-serif" font-size="14" lengthAdjust="spacing" textLength="107" x="1132.5" y="683.5029">KubernetesJob</text><rect fill="#FEFECE" filter="url(#fth9o39gy6yws)" height="30.2969" style="stroke:#A80036;stroke-width:1.5;" width="104" x="1554" y="87.9531"/><text fill="#000000" font-family="sans-serif" font-size="14" lengthAdjust="spacing" textLength="90" x="1561" y="107.9482">MLFlow@k8s</text><rect fill="#FEFECE" filter="url(#fth9o39gy6yws)" height="30.2969" style="stroke:#A80036;stroke-width:1.5;" width="104" x="1554" y="663.5078"/><text fill="#000000" font-family="sans-serif" font-size="14" lengthAdjust="spacing" textLength="90" x="1561" y="683.5029">MLFlow@k8s</text><rect fill="#FEFECE" filter="url(#fth9o39gy6yws)" height="30.2969" style="stroke:#A80036;stroke-width:1.5;" width="162" x="1672" y="87.9531"/><text fill="#000000" font-family="sans-serif" font-size="14" lengthAdjust="spacing" textLength="148" x="1679" y="107.9482">GoogleCloudStorage</text><rect fill="#FEFECE" filter="url(#fth9o39gy6yws)" height="30.2969" style="stroke:#A80036;stroke-width:1.5;" width="162" x="1672" y="663.5078"/><text fill="#000000" font-family="sans-serif" font-size="14" lengthAdjust="spacing" textLength="148" x="1679" y="683.5029">GoogleCloudStorage</text><polygon fill="#A80036" points="261,150.3828,271,154.3828,261,158.3828,265,154.3828" style="stroke:#A80036;stroke-width:1.0;"/><line style="stroke:#A80036;stroke-width:1.0;" x1="57" x2="267" y1="154.3828" y2="154.3828"/><text fill="#000000" font-family="sans-serif" font-size="13" lengthAdjust="spacing" textLength="131" x="64" y="149.3169">Git push experiment</text><polygon fill="#A80036" points="489,179.5156,499,183.5156,489,187.5156,493,183.5156" style="stroke:#A80036;stroke-width:1.0;"/><line style="stroke:#A80036;stroke-width:1.0;" x1="273" x2="495" y1="183.5156" y2="183.5156"/><text fill="#000000" font-family="sans-serif" font-size="13" lengthAdjust="spacing" textLength="112" x="280" y="178.4497">Erstelle ML Modell</text><line style="stroke:#A80036;stroke-width:1.0;" x1="501" x2="543" y1="212.6484" y2="212.6484"/><line style="stroke:#A80036;stroke-width:1.0;" x1="543" x2="543" y1="212.6484" y2="225.6484"/><line style="stroke:#A80036;stroke-width:1.0;" x1="502" x2="543" y1="225.6484" y2="225.6484"/><polygon fill="#A80036" points="512,221.6484,502,225.6484,512,229.6484,508,225.6484" style="stroke:#A80036;stroke-width:1.0;"/><text fill="#000000" font-family="sans-serif" font-size="13" lengthAdjust="spacing" textLength="226" x="508" y="207.5825">Build Docker Image with mlflow run</text><polygon fill="#A80036" points="729,250.7813,739,254.7813,729,258.7813,733,254.7813" style="stroke:#A80036;stroke-width:1.0;"/><line style="stroke:#A80036;stroke-width:1.0;" x1="501" x2="735" y1="254.7813" y2="254.7813"/><text fill="#000000" font-family="sans-serif" font-size="13" lengthAdjust="spacing" textLength="137" x="508" y="249.7153">Upload Docker Image</text><polygon fill="#A80036" points="841,279.9141,851,283.9141,841,287.9141,845,283.9141" style="stroke:#A80036;stroke-width:1.0;"/><line style="stroke:#A80036;stroke-width:1.0;" x1="501" x2="847" y1="283.9141" y2="283.9141"/><text fill="#000000" font-family="sans-serif" font-size="13" lengthAdjust="spacing" textLength="328" x="508" y="278.8481">Create Kubernetes Job to run the model generation</text><polygon fill="#A80036" points="512,309.0469,502,313.0469,512,317.0469,508,313.0469" style="stroke:#A80036;stroke-width:1.0;"/><line style="stroke:#A80036;stroke-width:1.0;stroke-dasharray:2.0,2.0;" x1="506" x2="852" y1="313.0469" y2="313.0469"/><text fill="#000000" font-family="sans-serif" font-size="13" lengthAdjust="spacing" textLength="139" x="518" y="307.981">Response job created</text><polygon fill="#A80036" points="284,338.1797,274,342.1797,284,346.1797,280,342.1797" style="stroke:#A80036;stroke-width:1.0;"/><line style="stroke:#A80036;stroke-width:1.0;stroke-dasharray:2.0,2.0;" x1="278" x2="500" y1="342.1797" y2="342.1797"/><text fill="#000000" font-family="sans-serif" font-size="13" lengthAdjust="spacing" textLength="204" x="290" y="337.1138">Response GitHubAction finished</text><polygon fill="#A80036" points="68,367.3125,58,371.3125,68,375.3125,64,371.3125" style="stroke:#A80036;stroke-width:1.0;"/><line style="stroke:#A80036;stroke-width:1.0;stroke-dasharray:2.0,2.0;" x1="62" x2="272" y1="371.3125" y2="371.3125"/><text fill="#000000" font-family="sans-serif" font-size="13" lengthAdjust="spacing" textLength="192" x="74" y="366.2466">Response experiment pushed</text><polygon fill="#A80036" points="1176,396.4453,1186,400.4453,1176,404.4453,1180,400.4453" style="stroke:#A80036;stroke-width:1.0;"/><line style="stroke:#A80036;stroke-width:1.0;" x1="853" x2="1182" y1="400.4453" y2="400.4453"/><text fill="#000000" font-family="sans-serif" font-size="13" lengthAdjust="spacing" textLength="311" x="860" y="395.3794">Schedule Job on defined Nodes (GPU / CPU spec)</text><polygon fill="#A80036" points="752,425.5781,742,429.5781,752,433.5781,748,429.5781" style="stroke:#A80036;stroke-width:1.0;"/><line style="stroke:#A80036;stroke-width:1.0;" x1="746" x2="1187" y1="429.5781" y2="429.5781"/><text fill="#000000" font-family="sans-serif" font-size="13" lengthAdjust="spacing" textLength="272" x="758" y="424.5122">Pull ML Modell Generation Container Image</text><polygon fill="#A80036" points="1176,454.7109,1186,458.7109,1176,462.7109,1180,458.7109" style="stroke:#A80036;stroke-width:1.0;"/><line style="stroke:#A80036;stroke-width:1.0;stroke-dasharray:2.0,2.0;" x1="741" x2="1182" y1="458.7109" y2="458.7109"/><text fill="#000000" font-family="sans-serif" font-size="13" lengthAdjust="spacing" textLength="173" x="748" y="453.645">Response Container Image</text><line style="stroke:#A80036;stroke-width:1.0;" x1="1188" x2="1230" y1="487.8438" y2="487.8438"/><line style="stroke:#A80036;stroke-width:1.0;" x1="1230" x2="1230" y1="487.8438" y2="500.8438"/><line style="stroke:#A80036;stroke-width:1.0;" x1="1189" x2="1230" y1="500.8438" y2="500.8438"/><polygon fill="#A80036" points="1199,496.8438,1189,500.8438,1199,504.8438,1195,500.8438" style="stroke:#A80036;stroke-width:1.0;"/><text fill="#000000" font-family="sans-serif" font-size="13" lengthAdjust="spacing" textLength="122" x="1195" y="482.7778">Generate ML Model</text><polygon fill="#A80036" points="1596,525.9766,1606,529.9766,1596,533.9766,1600,529.9766" style="stroke:#A80036;stroke-width:1.0;"/><line style="stroke:#A80036;stroke-width:1.0;" x1="1188" x2="1602" y1="529.9766" y2="529.9766"/><text fill="#000000" font-family="sans-serif" font-size="13" lengthAdjust="spacing" textLength="396" x="1195" y="524.9106">Create MLFlow experiment and get Google Cloud Storage URL</text><polygon fill="#A80036" points="1199,555.1094,1189,559.1094,1199,563.1094,1195,559.1094" style="stroke:#A80036;stroke-width:1.0;"/><line style="stroke:#A80036;stroke-width:1.0;stroke-dasharray:2.0,2.0;" x1="1193" x2="1607" y1="559.1094" y2="559.1094"/><text fill="#000000" font-family="sans-serif" font-size="13" lengthAdjust="spacing" textLength="63" x="1205" y="554.0435">Response</text><polygon fill="#A80036" points="1743,584.2422,1753,588.2422,1743,592.2422,1747,588.2422" style="stroke:#A80036;stroke-width:1.0;"/><line style="stroke:#A80036;stroke-width:1.0;" x1="1188" x2="1749" y1="588.2422" y2="588.2422"/><text fill="#000000" font-family="sans-serif" font-size="13" lengthAdjust="spacing" textLength="106" x="1195" y="583.1763">Upload ML Model</text><polygon fill="#A80036" points="1199,613.375,1189,617.375,1199,621.375,1195,617.375" style="stroke:#A80036;stroke-width:1.0;"/><line style="stroke:#A80036;stroke-width:1.0;stroke-dasharray:2.0,2.0;" x1="1193" x2="1754" y1="617.375" y2="617.375"/><text fill="#000000" font-family="sans-serif" font-size="13" lengthAdjust="spacing" textLength="165" x="1205" y="612.3091">Response upload success</text><polygon fill="#A80036" points="864,642.5078,854,646.5078,864,650.5078,860,646.5078" style="stroke:#A80036;stroke-width:1.0;"/><line style="stroke:#A80036;stroke-width:1.0;stroke-dasharray:2.0,2.0;" x1="858" x2="1187" y1="646.5078" y2="646.5078"/><text fill="#000000" font-family="sans-serif" font-size="13" lengthAdjust="spacing" textLength="130" x="870" y="641.4419">Response job ended</text><!--MD5=[8062b4f2d76d12ee9b310656bfb89304]
@startuml
actor DataScientist

title Sequence diagram **ML Model Build** process
DataScientist -> GitHub: Git push experiment

GitHub -> GithubAction: Erstelle ML Modell

GithubAction -> GithubAction : Build Docker Image with mlflow run
GithubAction -> DockerHub: Upload Docker Image
GithubAction -> Kubernetes: Create Kubernetes Job to run the model generation
GithubAction <- - Kubernetes: Response job created
GitHub <- - GithubAction: Response GitHubAction finished
DataScientist <- - GitHub: Response experiment pushed

Kubernetes -> KubernetesJob: Schedule Job on defined Nodes (GPU / CPU spec)
KubernetesJob -> DockerHub: Pull ML Modell Generation Container Image
KubernetesJob <- - DockerHub: Response Container Image
KubernetesJob -> KubernetesJob: Generate ML Model

KubernetesJob -> MLFlow@k8s: Create MLFlow experiment and get Google Cloud Storage URL 
KubernetesJob <- - MLFlow@k8s: Response

KubernetesJob -> GoogleCloudStorage: Upload ML Model
KubernetesJob <- - GoogleCloudStorage: Response upload success
Kubernetes <- - KubernetesJob: Response job ended
@enduml

PlantUML version 1.2021.13beta4(Unknown compile time)
(GPL source distribution)
Java Runtime: Java(TM) SE Runtime Environment
JVM: Java HotSpot(TM) 64-Bit Server VM
Default Encoding: UTF-8
Language: en
Country: US
--></g></svg>