<?xml version="1.0" encoding="UTF-8" standalone="no"?><svg xmlns="http://www.w3.org/2000/svg" xmlns:xlink="http://www.w3.org/1999/xlink" contentScriptType="application/ecmascript" contentStyleType="text/css" height="592px" preserveAspectRatio="none" style="width:1456px;height:592px;background:#FFFFFF;" version="1.1" viewBox="0 0 1456 592" width="1456px" zoomAndPan="magnify"><defs><filter height="300%" id="f1dubn43kefthp" width="300%" x="-1" y="-1"><feGaussianBlur result="blurOut" stdDeviation="2.0"/><feColorMatrix in="blurOut" result="blurOut2" type="matrix" values="0 0 0 0 0 0 0 0 0 0 0 0 0 0 0 0 0 0 .4 0"/><feOffset dx="4.0" dy="4.0" in="blurOut2" result="blurOut3"/><feBlend in="SourceGraphic" in2="blurOut3" mode="normal"/></filter></defs><g><text fill="#000000" font-family="sans-serif" font-size="18" lengthAdjust="spacing" textLength="171" x="487.25" y="28.708">Sequence diagram</text><text fill="#000000" font-family="sans-serif" font-size="18" font-weight="bold" lengthAdjust="spacing" textLength="222" x="664.25" y="28.708">ML Model Production</text><text fill="#000000" font-family="sans-serif" font-size="18" lengthAdjust="spacing" textLength="73" x="892.25" y="28.708">process</text><rect fill="#FFFFFF" filter="url(#f1dubn43kefthp)" height="234.0625" style="stroke:#000000;stroke-width:2.0;" width="929" x="513.5" y="256.7813"/><line style="stroke:#A80036;stroke-width:1.0;stroke-dasharray:5.0,5.0;" x1="91" x2="91" y1="123.25" y2="507.8438"/><line style="stroke:#A80036;stroke-width:1.0;stroke-dasharray:5.0,5.0;" x1="370.5" x2="370.5" y1="123.25" y2="507.8438"/><line style="stroke:#A80036;stroke-width:1.0;stroke-dasharray:5.0,5.0;" x1="600.5" x2="600.5" y1="123.25" y2="507.8438"/><line style="stroke:#A80036;stroke-width:1.0;stroke-dasharray:5.0,5.0;" x1="836" x2="836" y1="123.25" y2="507.8438"/><line style="stroke:#A80036;stroke-width:1.0;stroke-dasharray:5.0,5.0;" x1="1066" x2="1066" y1="123.25" y2="507.8438"/><line style="stroke:#A80036;stroke-width:1.0;stroke-dasharray:5.0,5.0;" x1="1362.5" x2="1362.5" y1="123.25" y2="507.8438"/><text fill="#000000" font-family="sans-serif" font-size="14" lengthAdjust="spacing" textLength="166" x="5" y="119.9482">DataScientistApprover</text><ellipse cx="91" cy="49.9531" fill="#FEFECE" filter="url(#f1dubn43kefthp)" rx="8" ry="8" style="stroke:#A80036;stroke-width:2.0;"/><path d="M91,57.9531 L91,84.9531 M78,65.9531 L104,65.9531 M91,84.9531 L78,99.9531 M91,84.9531 L104,99.9531 " fill="none" filter="url(#f1dubn43kefthp)" style="stroke:#A80036;stroke-width:2.0;"/><text fill="#000000" font-family="sans-serif" font-size="14" lengthAdjust="spacing" textLength="166" x="5" y="519.8389">DataScientistApprover</text><ellipse cx="91" cy="533.1406" fill="#FEFECE" filter="url(#f1dubn43kefthp)" rx="8" ry="8" style="stroke:#A80036;stroke-width:2.0;"/><path d="M91,541.1406 L91,568.1406 M78,549.1406 L104,549.1406 M91,568.1406 L78,583.1406 M91,568.1406 L104,583.1406 " fill="none" filter="url(#f1dubn43kefthp)" style="stroke:#A80036;stroke-width:2.0;"/><rect fill="#FEFECE" filter="url(#f1dubn43kefthp)" height="30.2969" style="stroke:#A80036;stroke-width:1.5;" width="79" x="329.5" y="87.9531"/><text fill="#000000" font-family="sans-serif" font-size="14" lengthAdjust="spacing" textLength="65" x="336.5" y="107.9482">MLFlowUI</text><rect fill="#FEFECE" filter="url(#f1dubn43kefthp)" height="30.2969" style="stroke:#A80036;stroke-width:1.5;" width="79" x="329.5" y="506.8438"/><text fill="#000000" font-family="sans-serif" font-size="14" lengthAdjust="spacing" textLength="65" x="336.5" y="526.8389">MLFlowUI</text><rect fill="#FEFECE" filter="url(#f1dubn43kefthp)" height="30.2969" style="stroke:#A80036;stroke-width:1.5;" width="151" x="523.5" y="87.9531"/><text fill="#000000" font-family="sans-serif" font-size="14" lengthAdjust="spacing" textLength="137" x="530.5" y="107.9482">MLFlowServer@k8s</text><rect fill="#FEFECE" filter="url(#f1dubn43kefthp)" height="30.2969" style="stroke:#A80036;stroke-width:1.5;" width="151" x="523.5" y="506.8438"/><text fill="#000000" font-family="sans-serif" font-size="14" lengthAdjust="spacing" textLength="137" x="530.5" y="526.8389">MLFlowServer@k8s</text><rect fill="#FEFECE" filter="url(#f1dubn43kefthp)" height="30.2969" style="stroke:#A80036;stroke-width:1.5;" width="110" x="779" y="87.9531"/><text fill="#000000" font-family="sans-serif" font-size="14" lengthAdjust="spacing" textLength="96" x="786" y="107.9482">GithubAction</text><rect fill="#FEFECE" filter="url(#f1dubn43kefthp)" height="30.2969" style="stroke:#A80036;stroke-width:1.5;" width="110" x="779" y="506.8438"/><text fill="#000000" font-family="sans-serif" font-size="14" lengthAdjust="spacing" textLength="96" x="786" y="526.8389">GithubAction</text><rect fill="#FEFECE" filter="url(#f1dubn43kefthp)" height="30.2969" style="stroke:#A80036;stroke-width:1.5;" width="98" x="1015" y="87.9531"/><text fill="#000000" font-family="sans-serif" font-size="14" lengthAdjust="spacing" textLength="84" x="1022" y="107.9482">Kubernetes</text><rect fill="#FEFECE" filter="url(#f1dubn43kefthp)" height="30.2969" style="stroke:#A80036;stroke-width:1.5;" width="98" x="1015" y="506.8438"/><text fill="#000000" font-family="sans-serif" font-size="14" lengthAdjust="spacing" textLength="84" x="1022" y="526.8389">Kubernetes</text><rect fill="#FEFECE" filter="url(#f1dubn43kefthp)" height="30.2969" style="stroke:#A80036;stroke-width:1.5;" width="135" x="1293.5" y="87.9531"/><text fill="#000000" font-family="sans-serif" font-size="14" lengthAdjust="spacing" textLength="121" x="1300.5" y="107.9482">SeldonCore@k8s</text><rect fill="#FEFECE" filter="url(#f1dubn43kefthp)" height="30.2969" style="stroke:#A80036;stroke-width:1.5;" width="135" x="1293.5" y="506.8438"/><text fill="#000000" font-family="sans-serif" font-size="14" lengthAdjust="spacing" textLength="121" x="1300.5" y="526.8389">SeldonCore@k8s</text><polygon fill="#A80036" points="359,150.3828,369,154.3828,359,158.3828,363,154.3828" style="stroke:#A80036;stroke-width:1.0;"/><line style="stroke:#A80036;stroke-width:1.0;" x1="91" x2="365" y1="154.3828" y2="154.3828"/><text fill="#000000" font-family="sans-serif" font-size="13" lengthAdjust="spacing" textLength="217" x="98" y="149.3169">Update Model Stage to Production</text><polygon fill="#A80036" points="589,179.5156,599,183.5156,589,187.5156,593,183.5156" style="stroke:#A80036;stroke-width:1.0;"/><line style="stroke:#A80036;stroke-width:1.0;" x1="371" x2="595" y1="183.5156" y2="183.5156"/><text fill="#000000" font-family="sans-serif" font-size="13" lengthAdjust="spacing" textLength="144" x="378" y="178.4497">Update Model Registry</text><polygon fill="#A80036" points="382,208.6484,372,212.6484,382,216.6484,378,212.6484" style="stroke:#A80036;stroke-width:1.0;"/><line style="stroke:#A80036;stroke-width:1.0;stroke-dasharray:2.0,2.0;" x1="376" x2="600" y1="212.6484" y2="212.6484"/><text fill="#000000" font-family="sans-serif" font-size="13" lengthAdjust="spacing" textLength="206" x="388" y="207.5825">Response new Production stage</text><polygon fill="#A80036" points="102,237.7813,92,241.7813,102,245.7813,98,241.7813" style="stroke:#A80036;stroke-width:1.0;"/><line style="stroke:#A80036;stroke-width:1.0;stroke-dasharray:2.0,2.0;" x1="96" x2="370" y1="241.7813" y2="241.7813"/><text fill="#000000" font-family="sans-serif" font-size="13" lengthAdjust="spacing" textLength="256" x="108" y="236.7153">New Modell will be deployed via CronJob</text><path d="M513.5,256.7813 L591.5,256.7813 L591.5,263.7813 L581.5,273.7813 L513.5,273.7813 L513.5,256.7813 " fill="#EEEEEE" style="stroke:#000000;stroke-width:1.0;"/><rect fill="none" height="234.0625" style="stroke:#000000;stroke-width:2.0;" width="929" x="513.5" y="256.7813"/><text fill="#000000" font-family="sans-serif" font-size="13" font-weight="bold" lengthAdjust="spacing" textLength="33" x="528.5" y="269.8481">loop</text><text fill="#000000" font-family="sans-serif" font-size="11" font-weight="bold" lengthAdjust="spacing" textLength="99" x="606.5" y="268.9917">[CronJob:1min]</text><polygon fill="#A80036" points="612,291.0469,602,295.0469,612,299.0469,608,295.0469" style="stroke:#A80036;stroke-width:1.0;"/><line style="stroke:#A80036;stroke-width:1.0;" x1="606" x2="835" y1="295.0469" y2="295.0469"/><text fill="#000000" font-family="sans-serif" font-size="13" lengthAdjust="spacing" textLength="211" x="618" y="289.981">Get Modell with Stage Production</text><polygon fill="#A80036" points="824,320.1797,834,324.1797,824,328.1797,828,324.1797" style="stroke:#A80036;stroke-width:1.0;"/><line style="stroke:#A80036;stroke-width:1.0;stroke-dasharray:2.0,2.0;" x1="601" x2="830" y1="324.1797" y2="324.1797"/><text fill="#000000" font-family="sans-serif" font-size="13" lengthAdjust="spacing" textLength="152" x="608" y="319.1138">Response Model Details</text><line style="stroke:#A80036;stroke-width:1.0;" x1="836" x2="878" y1="353.3125" y2="353.3125"/><line style="stroke:#A80036;stroke-width:1.0;" x1="878" x2="878" y1="353.3125" y2="366.3125"/><line style="stroke:#A80036;stroke-width:1.0;" x1="837" x2="878" y1="366.3125" y2="366.3125"/><polygon fill="#A80036" points="847,362.3125,837,366.3125,847,370.3125,843,366.3125" style="stroke:#A80036;stroke-width:1.0;"/><text fill="#000000" font-family="sans-serif" font-size="13" lengthAdjust="spacing" textLength="84" x="843" y="348.2466">Export RunID</text><polygon fill="#A80036" points="1054,391.4453,1064,395.4453,1054,399.4453,1058,395.4453" style="stroke:#A80036;stroke-width:1.0;"/><line style="stroke:#A80036;stroke-width:1.0;" x1="836" x2="1060" y1="395.4453" y2="395.4453"/><text fill="#000000" font-family="sans-serif" font-size="13" lengthAdjust="spacing" textLength="206" x="843" y="390.3794">Trigger new Seldon Deployment</text><polygon fill="#A80036" points="847,420.5781,837,424.5781,847,428.5781,843,424.5781" style="stroke:#A80036;stroke-width:1.0;"/><line style="stroke:#A80036;stroke-width:1.0;stroke-dasharray:2.0,2.0;" x1="841" x2="1065" y1="424.5781" y2="424.5781"/><text fill="#000000" font-family="sans-serif" font-size="13" lengthAdjust="spacing" textLength="189" x="853" y="419.5122">Deployment started (asynch)</text><polygon fill="#A80036" points="1351,449.7109,1361,453.7109,1351,457.7109,1355,453.7109" style="stroke:#A80036;stroke-width:1.0;"/><line style="stroke:#A80036;stroke-width:1.0;" x1="1066" x2="1357" y1="453.7109" y2="453.7109"/><text fill="#000000" font-family="sans-serif" font-size="13" lengthAdjust="spacing" textLength="141" x="1073" y="448.645">Publish new ML Modell</text><polygon fill="#A80036" points="1077,478.8438,1067,482.8438,1077,486.8438,1073,482.8438" style="stroke:#A80036;stroke-width:1.0;"/><line style="stroke:#A80036;stroke-width:1.0;stroke-dasharray:2.0,2.0;" x1="1071" x2="1362" y1="482.8438" y2="482.8438"/><text fill="#000000" font-family="sans-serif" font-size="13" lengthAdjust="spacing" textLength="273" x="1083" y="477.7778">New REST Endpoint for ML Modell available</text><!--MD5=[49c5619c74ac97599dffdfdf61ab1bb6]
@startuml
title Sequence diagram **ML Model Production** process
actor DataScientistApprover

DataScientistApprover -> MLFlowUI: Update Model Stage to Production

MLFlowUI -> MLFlowServer@k8s: Update Model Registry
MLFlowUI <- - MLFlowServer@k8s: Response new Production stage 

DataScientistApprover <- - MLFlowUI: New Modell will be deployed via CronJob

loop CronJob:1min
GithubAction -> MLFlowServer@k8s: Get Modell with Stage Production
GithubAction <- - MLFlowServer@k8s: Response Model Details


GithubAction -> GithubAction: Export RunID

GithubAction -> Kubernetes: Trigger new Seldon Deployment
GithubAction <- - Kubernetes: Deployment started (asynch)

Kubernetes -> SeldonCore@k8s: Publish new ML Modell 
Kubernetes <- - SeldonCore@k8s: New REST Endpoint for ML Modell available
end
@enduml

PlantUML version 1.2021.13beta4(Unknown compile time)
(GPL source distribution)
Java Runtime: Java(TM) SE Runtime Environment
JVM: Java HotSpot(TM) 64-Bit Server VM
Default Encoding: UTF-8
Language: en
Country: US
--></g></svg>