<?xml version="1.0" encoding="UTF-8" standalone="no"?><svg xmlns="http://www.w3.org/2000/svg" xmlns:xlink="http://www.w3.org/1999/xlink" contentScriptType="application/ecmascript" contentStyleType="text/css" height="557px" preserveAspectRatio="none" style="width:1456px;height:557px;background:#FFFFFF;" version="1.1" viewBox="0 0 1456 557" width="1456px" zoomAndPan="magnify"><defs><filter height="300%" id="f1g16kotis6qd0" width="300%" x="-1" y="-1"><feGaussianBlur result="blurOut" stdDeviation="2.0"/><feColorMatrix in="blurOut" result="blurOut2" type="matrix" values="0 0 0 0 0 0 0 0 0 0 0 0 0 0 0 0 0 0 .4 0"/><feOffset dx="4.0" dy="4.0" in="blurOut2" result="blurOut3"/><feBlend in="SourceGraphic" in2="blurOut3" mode="normal"/></filter></defs><g><rect fill="#FFFFFF" filter="url(#f1g16kotis6qd0)" height="234.0625" style="stroke:#000000;stroke-width:2.0;" width="929" x="513.5" y="221.8281"/><line style="stroke:#A80036;stroke-width:1.0;stroke-dasharray:5.0,5.0;" x1="91" x2="91" y1="88.2969" y2="472.8906"/><line style="stroke:#A80036;stroke-width:1.0;stroke-dasharray:5.0,5.0;" x1="370.5" x2="370.5" y1="88.2969" y2="472.8906"/><line style="stroke:#A80036;stroke-width:1.0;stroke-dasharray:5.0,5.0;" x1="600.5" x2="600.5" y1="88.2969" y2="472.8906"/><line style="stroke:#A80036;stroke-width:1.0;stroke-dasharray:5.0,5.0;" x1="836" x2="836" y1="88.2969" y2="472.8906"/><line style="stroke:#A80036;stroke-width:1.0;stroke-dasharray:5.0,5.0;" x1="1066" x2="1066" y1="88.2969" y2="472.8906"/><line style="stroke:#A80036;stroke-width:1.0;stroke-dasharray:5.0,5.0;" x1="1362.5" x2="1362.5" y1="88.2969" y2="472.8906"/><text fill="#000000" font-family="sans-serif" font-size="14" lengthAdjust="spacing" textLength="166" x="5" y="84.9951">DataScientistApprover</text><ellipse cx="91" cy="15" fill="#FEFECE" filter="url(#f1g16kotis6qd0)" rx="8" ry="8" style="stroke:#A80036;stroke-width:2.0;"/><path d="M91,23 L91,50 M78,31 L104,31 M91,50 L78,65 M91,50 L104,65 " fill="none" filter="url(#f1g16kotis6qd0)" style="stroke:#A80036;stroke-width:2.0;"/><text fill="#000000" font-family="sans-serif" font-size="14" lengthAdjust="spacing" textLength="166" x="5" y="484.8857">DataScientistApprover</text><ellipse cx="91" cy="498.1875" fill="#FEFECE" filter="url(#f1g16kotis6qd0)" rx="8" ry="8" style="stroke:#A80036;stroke-width:2.0;"/><path d="M91,506.1875 L91,533.1875 M78,514.1875 L104,514.1875 M91,533.1875 L78,548.1875 M91,533.1875 L104,548.1875 " fill="none" filter="url(#f1g16kotis6qd0)" style="stroke:#A80036;stroke-width:2.0;"/><rect fill="#FEFECE" filter="url(#f1g16kotis6qd0)" height="30.2969" style="stroke:#A80036;stroke-width:1.5;" width="79" x="329.5" y="53"/><text fill="#000000" font-family="sans-serif" font-size="14" lengthAdjust="spacing" textLength="65" x="336.5" y="72.9951">MLFlowUI</text><rect fill="#FEFECE" filter="url(#f1g16kotis6qd0)" height="30.2969" style="stroke:#A80036;stroke-width:1.5;" width="79" x="329.5" y="471.8906"/><text fill="#000000" font-family="sans-serif" font-size="14" lengthAdjust="spacing" textLength="65" x="336.5" y="491.8857">MLFlowUI</text><rect fill="#FEFECE" filter="url(#f1g16kotis6qd0)" height="30.2969" style="stroke:#A80036;stroke-width:1.5;" width="151" x="523.5" y="53"/><text fill="#000000" font-family="sans-serif" font-size="14" lengthAdjust="spacing" textLength="137" x="530.5" y="72.9951">MLFlowServer@k8s</text><rect fill="#FEFECE" filter="url(#f1g16kotis6qd0)" height="30.2969" style="stroke:#A80036;stroke-width:1.5;" width="151" x="523.5" y="471.8906"/><text fill="#000000" font-family="sans-serif" font-size="14" lengthAdjust="spacing" textLength="137" x="530.5" y="491.8857">MLFlowServer@k8s</text><rect fill="#FEFECE" filter="url(#f1g16kotis6qd0)" height="30.2969" style="stroke:#A80036;stroke-width:1.5;" width="110" x="779" y="53"/><text fill="#000000" font-family="sans-serif" font-size="14" lengthAdjust="spacing" textLength="96" x="786" y="72.9951">GithubAction</text><rect fill="#FEFECE" filter="url(#f1g16kotis6qd0)" height="30.2969" style="stroke:#A80036;stroke-width:1.5;" width="110" x="779" y="471.8906"/><text fill="#000000" font-family="sans-serif" font-size="14" lengthAdjust="spacing" textLength="96" x="786" y="491.8857">GithubAction</text><rect fill="#FEFECE" filter="url(#f1g16kotis6qd0)" height="30.2969" style="stroke:#A80036;stroke-width:1.5;" width="98" x="1015" y="53"/><text fill="#000000" font-family="sans-serif" font-size="14" lengthAdjust="spacing" textLength="84" x="1022" y="72.9951">Kubernetes</text><rect fill="#FEFECE" filter="url(#f1g16kotis6qd0)" height="30.2969" style="stroke:#A80036;stroke-width:1.5;" width="98" x="1015" y="471.8906"/><text fill="#000000" font-family="sans-serif" font-size="14" lengthAdjust="spacing" textLength="84" x="1022" y="491.8857">Kubernetes</text><rect fill="#FEFECE" filter="url(#f1g16kotis6qd0)" height="30.2969" style="stroke:#A80036;stroke-width:1.5;" width="135" x="1293.5" y="53"/><text fill="#000000" font-family="sans-serif" font-size="14" lengthAdjust="spacing" textLength="121" x="1300.5" y="72.9951">SeldonCore@k8s</text><rect fill="#FEFECE" filter="url(#f1g16kotis6qd0)" height="30.2969" style="stroke:#A80036;stroke-width:1.5;" width="135" x="1293.5" y="471.8906"/><text fill="#000000" font-family="sans-serif" font-size="14" lengthAdjust="spacing" textLength="121" x="1300.5" y="491.8857">SeldonCore@k8s</text><polygon fill="#A80036" points="359,115.4297,369,119.4297,359,123.4297,363,119.4297" style="stroke:#A80036;stroke-width:1.0;"/><line style="stroke:#A80036;stroke-width:1.0;" x1="91" x2="365" y1="119.4297" y2="119.4297"/><text fill="#000000" font-family="sans-serif" font-size="13" lengthAdjust="spacing" textLength="217" x="98" y="114.3638">Update Model Stage to Production</text><polygon fill="#A80036" points="589,144.5625,599,148.5625,589,152.5625,593,148.5625" style="stroke:#A80036;stroke-width:1.0;"/><line style="stroke:#A80036;stroke-width:1.0;" x1="371" x2="595" y1="148.5625" y2="148.5625"/><text fill="#000000" font-family="sans-serif" font-size="13" lengthAdjust="spacing" textLength="144" x="378" y="143.4966">Update Model Registry</text><polygon fill="#A80036" points="382,173.6953,372,177.6953,382,181.6953,378,177.6953" style="stroke:#A80036;stroke-width:1.0;"/><line style="stroke:#A80036;stroke-width:1.0;stroke-dasharray:2.0,2.0;" x1="376" x2="600" y1="177.6953" y2="177.6953"/><text fill="#000000" font-family="sans-serif" font-size="13" lengthAdjust="spacing" textLength="206" x="388" y="172.6294">Response new Production stage</text><polygon fill="#A80036" points="102,202.8281,92,206.8281,102,210.8281,98,206.8281" style="stroke:#A80036;stroke-width:1.0;"/><line style="stroke:#A80036;stroke-width:1.0;stroke-dasharray:2.0,2.0;" x1="96" x2="370" y1="206.8281" y2="206.8281"/><text fill="#000000" font-family="sans-serif" font-size="13" lengthAdjust="spacing" textLength="256" x="108" y="201.7622">New Modell will be deployed via CronJob</text><path d="M513.5,221.8281 L591.5,221.8281 L591.5,228.8281 L581.5,238.8281 L513.5,238.8281 L513.5,221.8281 " fill="#EEEEEE" style="stroke:#000000;stroke-width:1.0;"/><rect fill="none" height="234.0625" style="stroke:#000000;stroke-width:2.0;" width="929" x="513.5" y="221.8281"/><text fill="#000000" font-family="sans-serif" font-size="13" font-weight="bold" lengthAdjust="spacing" textLength="33" x="528.5" y="234.895">loop</text><text fill="#000000" font-family="sans-serif" font-size="11" font-weight="bold" lengthAdjust="spacing" textLength="99" x="606.5" y="234.0386">[CronJob:1min]</text><polygon fill="#A80036" points="612,256.0938,602,260.0938,612,264.0938,608,260.0938" style="stroke:#A80036;stroke-width:1.0;"/><line style="stroke:#A80036;stroke-width:1.0;" x1="606" x2="835" y1="260.0938" y2="260.0938"/><text fill="#000000" font-family="sans-serif" font-size="13" lengthAdjust="spacing" textLength="211" x="618" y="255.0278">Get Modell with Stage Production</text><polygon fill="#A80036" points="824,285.2266,834,289.2266,824,293.2266,828,289.2266" style="stroke:#A80036;stroke-width:1.0;"/><line style="stroke:#A80036;stroke-width:1.0;stroke-dasharray:2.0,2.0;" x1="601" x2="830" y1="289.2266" y2="289.2266"/><text fill="#000000" font-family="sans-serif" font-size="13" lengthAdjust="spacing" textLength="152" x="608" y="284.1606">Response Model Details</text><line style="stroke:#A80036;stroke-width:1.0;" x1="836" x2="878" y1="318.3594" y2="318.3594"/><line style="stroke:#A80036;stroke-width:1.0;" x1="878" x2="878" y1="318.3594" y2="331.3594"/><line style="stroke:#A80036;stroke-width:1.0;" x1="837" x2="878" y1="331.3594" y2="331.3594"/><polygon fill="#A80036" points="847,327.3594,837,331.3594,847,335.3594,843,331.3594" style="stroke:#A80036;stroke-width:1.0;"/><text fill="#000000" font-family="sans-serif" font-size="13" lengthAdjust="spacing" textLength="84" x="843" y="313.2935">Export RunID</text><polygon fill="#A80036" points="1054,356.4922,1064,360.4922,1054,364.4922,1058,360.4922" style="stroke:#A80036;stroke-width:1.0;"/><line style="stroke:#A80036;stroke-width:1.0;" x1="836" x2="1060" y1="360.4922" y2="360.4922"/><text fill="#000000" font-family="sans-serif" font-size="13" lengthAdjust="spacing" textLength="206" x="843" y="355.4263">Trigger new Seldon Deployment</text><polygon fill="#A80036" points="847,385.625,837,389.625,847,393.625,843,389.625" style="stroke:#A80036;stroke-width:1.0;"/><line style="stroke:#A80036;stroke-width:1.0;stroke-dasharray:2.0,2.0;" x1="841" x2="1065" y1="389.625" y2="389.625"/><text fill="#000000" font-family="sans-serif" font-size="13" lengthAdjust="spacing" textLength="189" x="853" y="384.5591">Deployment started (asynch)</text><polygon fill="#A80036" points="1351,414.7578,1361,418.7578,1351,422.7578,1355,418.7578" style="stroke:#A80036;stroke-width:1.0;"/><line style="stroke:#A80036;stroke-width:1.0;" x1="1066" x2="1357" y1="418.7578" y2="418.7578"/><text fill="#000000" font-family="sans-serif" font-size="13" lengthAdjust="spacing" textLength="141" x="1073" y="413.6919">Publish new ML Modell</text><polygon fill="#A80036" points="1077,443.8906,1067,447.8906,1077,451.8906,1073,447.8906" style="stroke:#A80036;stroke-width:1.0;"/><line style="stroke:#A80036;stroke-width:1.0;stroke-dasharray:2.0,2.0;" x1="1071" x2="1362" y1="447.8906" y2="447.8906"/><text fill="#000000" font-family="sans-serif" font-size="13" lengthAdjust="spacing" textLength="273" x="1083" y="442.8247">New REST Endpoint for ML Modell available</text><!--MD5=[a57384e886e3f9ff281796d3b3c25f81]
@startuml
actor DataScientistApprover

DataScientistApprover -> MLFlowUI: Update Model Stage to Production

MLFlowUI -> MLFlowServer@k8s: Update Model Registry
MLFlowUI <- - MLFlowServer@k8s: Response new Production stage 

DataScientistApprover <- - MLFlowUI: New Modell will be deployed via CronJob

loop CronJob:1min
GithubAction -> MLFlowServer@k8s: Get Modell with Stage Production
GithubAction <- - MLFlowServer@k8s: Response Model Details


GithubAction -> GithubAction: Export RunID

GithubAction -> Kubernetes: Trigger new Seldon Deployment
GithubAction <- - Kubernetes: Deployment started (asynch)

Kubernetes -> SeldonCore@k8s: Publish new ML Modell 
Kubernetes <- - SeldonCore@k8s: New REST Endpoint for ML Modell available
end
@enduml

PlantUML version 1.2021.13beta4(Unknown compile time)
(GPL source distribution)
Java Runtime: Java(TM) SE Runtime Environment
JVM: Java HotSpot(TM) 64-Bit Server VM
Default Encoding: UTF-8
Language: en
Country: US
--></g></svg>